<svg viewBox="0 0 100 69" xmlns="http://www.w3.org/2000/svg"><path fill="#fff" d="M0 0h100v69H0z"/><path fill="#124a9b" d="M38.444 36.772A8.334 8.334 0 0050 34.462a8.333 8.333 0 0113.866 9.246 16.67 16.67 0 01-23.113 4.623 16.67 16.67 0 01-4.623-23.113 8.334 8.334 0 002.31 11.556z"/><path fill="#cc313a" d="M61.55 32.156a8.334 8.334 0 00-11.556 2.31 8.333 8.333 0 01-13.866-9.246 16.67 16.67 0 0123.113-4.623 16.67 16.67 0 014.623 23.113 8.334 8.334 0 00-2.31-11.556z"/><path d="M77.333 53.5l2.333 1.556-4.222 6.333-2.333-1.556 4.222-6.333zm-59.667-7.444l9.222 13.778-2.333 1.556-9.222-13.778 2.333-1.556zm56.222 5.11l2.333 1.556L72 59.056 69.667 57.5l4.222-6.333zm-47.778 0l4.222 6.333L28 59.056l-4.222-6.333 2.333-1.556zm44.333-2.333l2.333 1.556-4.222 6.333-2.333-1.556 4.222-6.333zm-45.89-7.444l9.222 13.778-2.333 1.556-9.222-13.778 2.333-1.556zm57.778 4.667l2.333 1.556-4.222 6.333-2.333-1.556 4.222-6.333zm-3.444-2.333l2.333 1.556L77 51.61l-2.333-1.556 4.222-6.333zm-57.778 0l4.222 6.333L23 51.61l-4.222-6.333 2.333-1.556zm54.333-2.333l2.333 1.556-4.222 6.333-2.333-1.556 4.222-6.333zm-44-29.222l2.333 1.556L24.556 27.5l-2.333-1.556 9.222-13.778zm42.11 7.444l4.222 6.333-2.333 1.556-4.222-6.333 2.333-1.556zM28 9.833l2.333 1.556-9.222 13.778-2.333-1.556L28 9.833zm44 0l9.222 13.778-2.333 1.556-9.222-13.778L72 9.833zM24.556 7.5l2.333 1.556-9.222 13.778-2.333-1.556L24.556 7.5zm55.89 7.444l4.222 6.333-2.333 1.556L78.11 16.5l2.333-1.556zm-11.89-2.778l4.222 6.333-2.333 1.556-4.222-6.333 2.333-1.556zm6.89-4.667l4.222 6.333-2.333 1.556-4.222-6.333L75.444 7.5z"/></svg>